<?xml version="1.0" standalone="no"?>
<!DOCTYPE svg PUBLIC "-//W3C//DTD SVG 20010904//EN"
 "http://www.w3.org/TR/2001/REC-SVG-20010904/DTD/svg10.dtd">
<svg version="1.0" xmlns="http://www.w3.org/2000/svg"
 width="640.000000pt" height="640.000000pt" viewBox="0 0 640.000000 640.000000"
 preserveAspectRatio="xMidYMid meet">

<g transform="translate(0.000000,640.000000) scale(0.100000,-0.100000)"
fill="#000000" stroke="none">
<path d="M2975 6324 c-529 -40 -1019 -200 -1451 -472 -848 -534 -1383 -1414
-1464 -2405 -123 -1522 877 -2917 2360 -3292 262 -67 456 -89 765 -89 261 0
340 6 558 45 385 67 768 216 1103 427 753 475 1260 1220 1423 2092 35 191 46
320 46 565 0 320 -24 508 -100 800 -286 1098 -1159 1961 -2267 2241 -233 59
-433 84 -703 88 -121 2 -242 2 -270 0z m590 -219 c624 -87 1174 -345 1615
-760 523 -492 829 -1095 922 -1815 19 -153 16 -552 -6 -710 -33 -242 -97 -492
-177 -692 -370 -935 -1192 -1623 -2165 -1812 -212 -41 -326 -51 -569 -51 -243
0 -357 10 -569 51 -1159 225 -2087 1155 -2310 2314 -43 222 -50 305 -50 565 0
260 7 343 50 565 170 884 759 1658 1572 2064 291 145 655 252 972 285 58 6
119 13 135 15 66 9 477 -4 580 -19z"/>
<path d="M1397 4578 c43 -56 213 -289 213 -293 0 -3 -49 -66 -110 -141 l-110
-135 0 -1100 0 -1099 208 212 c114 117 244 252 290 299 l82 85 0 247 0 247
514 0 513 0 197 230 197 230 411 0 410 0 -81 -86 -81 -85 0 -696 c0 -383 1
-694 3 -692 1 2 96 99 210 215 l207 211 0 566 0 567 243 2 242 3 143 190 c78
105 147 198 153 208 9 16 -31 17 -780 17 l-790 0 -123 -168 -123 -169 -3 574
-2 573 -1021 0 c-816 0 -1019 -3 -1012 -12z m1443 -833 l0 -255 -252 -2 -251
-3 -169 -230 c-93 -126 -176 -237 -184 -245 -12 -12 -14 49 -14 488 l0 502
435 0 435 0 0 -255z"/>
</g>
</svg>
